<svg xmlns="http://www.w3.org/2000/svg" version="1.1" xmlns:xlink="http://www.w3.org/1999/xlink" xmlns:svgjs="http://svgjs.dev/svgjs" viewBox="0 0 1422 800"><defs><filter id="llleaves-blur-2" x="-100%" y="-100%" width="400%" height="400%"><feGaussianBlur in="SourceGraphic" stdDeviation="2"></feGaussianBlur></filter><filter id="llleaves-blur-3" x="-100%" y="-100%" width="400%" height="400%"><feGaussianBlur in="SourceGraphic" stdDeviation="4"></feGaussianBlur></filter><filter id="llleaves-blur-4" x="-100%" y="-100%" width="400%" height="400%"><feGaussianBlur in="SourceGraphic" stdDeviation="12"></feGaussianBlur></filter></defs><g fill="hsl(335, 77%, 50%)"><path d="M13 359H63C91 359 113 381 113 409H63C35 409 13 387 13 359Z " transform="matrix(-0.01776094066272497,-0.5086067953606173,0.5086067953606173,-0.01776094066272497,-131.18607015672535,422.8624293222053)" opacity="0.78"></path><path d="M1181 595H1231C1259 595 1281 617 1281 645H1231C1203 645 1181 623 1181 595Z " transform="matrix(-0.3165926949061049,0.12791175164989493,-0.12791175164989493,-0.3165926949061049,1700.03089345235,658.8281045607644)" filter="url(#llleaves-blur-2)" opacity="0.52"></path><path d="M20 696H70C98 696 120 718 120 746H70C42 746 20 724 20 696Z " transform="matrix(-0.01776094066272497,-0.5086067953606173,0.5086067953606173,-0.01776094066272497,-295.4622336086143,769.4081138930679)" opacity="0.78"></path><path d="M264 31H314C342 31 364 53 364 81H314C286 81 264 59 264 31Z " transform="matrix(-0.38444980798801875,-0.08875723174876395,0.08875723174876395,-0.38444980798801875,429.74683473030717,105.39896001644092)" filter="url(#llleaves-blur-2)" opacity="0.61"></path><path d="M1027 613H1077C1105 613 1127 635 1127 663H1077C1049 663 1027 641 1027 613Z " transform="matrix(-0.2722146110298123,0.17677823538206688,-0.17677823538206688,-0.2722146110298123,1482.9596502528666,621.2827623305343)" filter="url(#llleaves-blur-2)" opacity="0.50"></path><path d="M1124 718H1174C1202 718 1224 740 1224 768H1174C1146 768 1124 746 1124 718Z " transform="matrix(-0.2807386460955379,0.1686847966779242,-0.1686847966779242,-0.2807386460955379,1628.919974447859,753.5528627491017)" filter="url(#llleaves-blur-2)" opacity="0.50"></path><path d="M1312 545H1362C1390 545 1412 567 1412 595H1362C1334 595 1312 573 1312 545Z " transform="matrix(-0.3840202687002196,-0.11011604008764547,0.11011604008764547,-0.3840202687002196,1822.2694631197412,938.8695997584983)" filter="url(#llleaves-blur-2)" opacity="0.61"></path><path d="M550 585H600C628 585 650 607 650 635H600C572 635 550 613 550 585Z " transform="matrix(-0.38429068365199154,-0.060865664852154056,0.060865664852154056,-0.38429068365199154,793.4463546313808,880.9367159390073)" filter="url(#llleaves-blur-2)" opacity="0.60"></path><path d="M727 379H777C805 379 827 401 827 429H777C749 429 727 407 727 379Z " transform="matrix(-0.3599726278927932,0.05059085359406663,-0.05059085359406663,-0.3599726278927932,1077.1374367247033,510.11984842609866)" filter="url(#llleaves-blur-2)" opacity="0.56"></path><path d="M390 445H440C468 445 490 467 490 495H440C412 495 390 473 390 445Z " transform="matrix(-0.34772206091520813,-0.2526348651805693,0.2526348651805693,-0.34772206091520813,474.259320167824,744.5887093095984)" opacity="0.66"></path><path d="M522 441H572C600 441 622 463 622 491H572C544 491 522 469 522 441Z " transform="matrix(-0.384381563278216,-0.0887414762160579,0.0887414762160579,-0.384381563278216,750.5127262784564,695.8819328832336)" filter="url(#llleaves-blur-2)" opacity="0.61"></path><path d="M1139 38H1189C1217 38 1239 60 1239 88H1189C1161 88 1139 66 1139 38Z " transform="matrix(-0.28076187142859543,0.16869875186592226,-0.16869875186592226,-0.28076187142859543,1533.4538864961532,-119.89481806858004)" filter="url(#llleaves-blur-2)" opacity="0.50"></path><path d="M1315 200H1365C1393 200 1415 222 1415 250H1365C1337 250 1315 228 1315 200Z " transform="matrix(-0.36638530481406184,-0.20309069077771616,0.20309069077771616,-0.36638530481406184,1819.4205356462085,584.6554864947466)" opacity="0.64"></path><path d="M1204 445H1254C1282 445 1304 467 1304 495H1254C1226 495 1204 473 1204 445Z " transform="matrix(-0.34039627286359525,0.09120890642036454,-0.09120890642036454,-0.34039627286359525,1723.7251121885197,515.6102795947527)" filter="url(#llleaves-blur-2)" opacity="0.54"></path><path d="M471 709H521C549 709 571 731 571 759H521C493 759 471 737 471 709Z " transform="matrix(-0.379914921580741,-0.1458356747681469,0.1458356747681469,-0.379914921580741,611.8922888637462,1088.8379389944685)" opacity="0.62"></path><path d="M1080 483H1130C1158 483 1180 505 1180 533H1130C1102 533 1080 511 1080 483Z " transform="matrix(-0.27205917570730953,0.17667729450338246,-0.17667729450338246,-0.27205917570730953,1527.1789341569781,446.56071847049105)" filter="url(#llleaves-blur-2)" opacity="0.50"></path><path d="M312 130H362C390 130 412 152 412 180H362C334 180 312 158 312 130Z " transform="matrix(-0.3265418941283093,-0.2940196421058068,0.2940196421058068,-0.3265418941283093,434.63512114804786,312.04910403219003)" opacity="0.67"></path><path d="M859 145H909C937 145 959 167 959 195H909C881 195 859 173 859 145Z " transform="matrix(-0.3710394383873112,0.012956982700270726,-0.012956982700270726,-0.3710394383873112,1248.4775365531118,221.29880725129684)" filter="url(#llleaves-blur-2)" opacity="0.57"></path><path d="M992 373H1042C1070 373 1092 395 1092 423H1042C1014 423 992 401 992 373Z " transform="matrix(-0.28037268312768665,0.16846490394251992,-0.16846490394251992,-0.28037268312768665,1401.1973675881723,334.04789797671356)" filter="url(#llleaves-blur-2)" opacity="0.50"></path><path d="M1296 48H1346C1374 48 1396 70 1396 98H1346C1318 98 1296 76 1296 48Z " transform="matrix(-0.28506643829124617,0.16458318488437879,-0.16458318488437879,-0.28506643829124617,1741.7139984365772,-127.71911685911289)" filter="url(#llleaves-blur-2)" opacity="0.50"></path><path d="M1177 163H1227C1255 163 1277 185 1277 213H1227C1199 213 1177 191 1177 163Z " transform="matrix(-0.3165926949061049,0.12791175164989493,-0.12791175164989493,-0.3165926949061049,1639.5066459599711,90.57170736792665)" filter="url(#llleaves-blur-2)" opacity="0.52"></path><path d="M420 39H470C498 39 520 61 520 89H470C442 89 420 67 420 39Z " transform="matrix(-0.3741083355177758,-0.17444958183155843,0.17444958183155843,-0.3741083355177758,634.6661444561349,169.9342369339701)" opacity="0.63"></path><path d="M131 37H181C209 37 231 59 231 87H181C153 87 131 65 131 37Z " transform="matrix(-0.3670244060566522,-0.20344495038127872,0.20344495038127872,-0.3670244060566522,234.81783057261478,121.57904919452389)" opacity="0.64"></path><path d="M861 382H911C939 382 961 404 961 432H911C883 432 861 410 861 382Z " transform="matrix(-0.3304689458510553,0.10737586950033368,-0.10737586950033368,-0.3304689458510553,1255.7591885569473,443.6814438465756)" filter="url(#llleaves-blur-2)" opacity="0.53"></path><path d="M620 714H670C698 714 720 736 720 764H670C642 764 620 742 620 714Z " transform="matrix(-0.3790604057636239,-0.01986571408019994,0.01986571408019994,-0.3790604057636239,909.2897091563602,1032.435668293052)" filter="url(#llleaves-blur-2)" opacity="0.58"></path><path d="M937 502H987C1015 502 1037 524 1037 552H987C959 552 937 530 937 502Z " transform="matrix(-0.30078716429170915,0.1467037022473803,-0.1467037022473803,-0.30078716429170915,1361.1897822402861,540.7182814635664)" filter="url(#llleaves-blur-2)" opacity="0.51"></path><path d="M253 435H303C331 435 353 457 353 485H303C275 485 253 463 253 435Z " transform="matrix(-0.24607292881104112,-0.39379900463856937,0.39379900463856937,-0.24607292881104112,196.41255529600355,692.5146456585654)" opacity="0.71"></path><path d="M561 41H611C639 41 661 63 661 91H611C583 91 561 69 561 41Z " transform="matrix(-0.3373700354292082,-0.2731968679690068,0.2731968679690068,-0.3373700354292082,799.1020983612917,255.18970866739087)" opacity="0.67"></path><path d="M705 42H755C783 42 805 64 805 92H755C727 92 705 70 705 42Z " transform="matrix(-0.29506830049323945,-0.3394372508598178,0.3394372508598178,-0.29506830049323945,955.0342710647881,343.04470053220945)" opacity="0.69"></path><path d="M20 209H70C98 209 120 231 120 259H70C42 259 20 237 20 209Z " transform="matrix(-0.01776094066272497,-0.5086067953606173,0.5086067953606173,-0.01776094066272497,-47.770724267993685,273.7585357903209)" opacity="0.78"></path><path d="M154 162H204C232 162 254 184 254 212H204C176 212 154 190 154 162Z " transform="matrix(-0.11091410565352298,-0.4804217727560381,0.4804217727560381,-0.11091410565352298,136.78760604793956,305.74697939944053)" opacity="0.76"></path><path d="M780 718H830C858 718 880 740 880 768H830C802 768 780 746 780 718Z " transform="matrix(-0.3465659003485586,0.08001104251927381,-0.08001104251927381,-0.3465659003485586,1177.097901881124,934.0892986679818)" filter="url(#llleaves-blur-2)" opacity="0.55"></path><path d="M6 528H56C84 528 106 550 106 578H56C28 578 6 556 6 528Z " transform="matrix(-0.008909121995681224,-0.5104032572963326,0.5104032572963326,-0.008909121995681224,-225.75409045311375,586.5093268722063)" opacity="0.78"></path><path d="M345 322H395C423 322 445 344 445 372H395C367 372 345 350 345 322Z " transform="matrix(-0.33079880251108446,-0.2875590119083749,0.2875590119083749,-0.33079880251108446,425.8825498596723,575.3729941751544)" opacity="0.67"></path></g><g fill="none" stroke-width="3" stroke="hsl(335, 77%, 50%)"><path d="M929 256H979C1007 256 1029 278 1029 306H979C951 306 929 284 929 256Z " transform="matrix(-0.30078716429170915,0.1467037022473803,-0.1467037022473803,-0.30078716429170915,1314.6943741730972,221.89826866578497)" filter="url(#llleaves-blur-2)" opacity="0.51"></path><path d="M267 240H317C345 240 367 262 367 290H317C289 290 267 268 267 240Z " transform="matrix(-0.24607292881104112,-0.39379900463856937,0.39379900463856937,-0.24607292881104112,290.6483822038792,455.0436106053524)" opacity="0.71"></path><path d="M1220 294H1270C1298 294 1320 316 1320 344H1270C1242 344 1220 322 1220 294Z " transform="matrix(-0.34039627286359525,0.09120890642036454,-0.09120890642036454,-0.34039627286359525,1731.398907684862,311.7510998896239)" filter="url(#llleaves-blur-2)" opacity="0.54"></path><path d="M325 709H375C403 709 425 731 425 759H375C347 759 325 737 325 709Z " transform="matrix(-0.30487890547027147,-0.3269425985728918,0.3269425985728918,-0.30487890547027147,249.3537221988492,1080.3845910800137)" opacity="0.69"></path><path d="M1294 704H1344C1372 704 1394 726 1394 754H1344C1316 754 1294 732 1294 704Z " transform="matrix(-0.3840202687002196,-0.11011604008764547,0.11011604008764547,-0.3840202687002196,1779.8486479092016,1156.9467337602555)" filter="url(#llleaves-blur-2)" opacity="0.61"></path><path d="M790 501H840C868 501 890 523 890 551H840C812 551 790 529 790 501Z " transform="matrix(-0.3465659003485586,0.08001104251927381,-0.08001104251927381,-0.3465659003485586,1173.2011646579272,641.0843878671518)" filter="url(#llleaves-blur-2)" opacity="0.55"></path><path d="M1101 320H1151C1179 320 1201 342 1201 370H1151C1123 370 1101 348 1101 320Z " transform="matrix(-0.27205917570730953,0.17667729450338246,-0.17667729450338246,-0.27205917570730953,1525.0937778427806,235.50484964562855)" filter="url(#llleaves-blur-2)" opacity="0.50"></path><path d="M701 604H751C779 604 801 626 801 654H751C723 654 701 632 701 604Z " transform="matrix(-0.3659758206819298,0.03201873543426543,-0.03201873543426543,-0.3659758206819298,1045.9876259202822,835.1527208978007)" filter="url(#llleaves-blur-2)" opacity="0.56"></path><path d="M121 445H171C199 445 221 467 221 495H171C143 495 121 473 121 445Z " transform="matrix(-0.07796035253484584,-0.4922222939014827,0.4922222939014827,-0.07796035253484584,-47.01325785023826,590.811377948531)" opacity="0.77"></path><path d="M483 308H533C561 308 583 330 583 358H533C505 358 483 336 483 308Z " transform="matrix(-0.379914921580741,-0.1458356747681469,0.1458356747681469,-0.379914921580741,686.931373504742,537.2420835378091)" opacity="0.62"></path><path d="M155 310H205C233 310 255 332 255 360H205C177 360 155 338 155 310Z " transform="matrix(-0.11091410565352298,-0.4804217727560381,0.4804217727560381,-0.11091410565352298,66.79609778569943,470.6426888089181)" opacity="0.76"></path><path d="M620 310H670C698 310 720 332 720 360H670C642 360 620 338 620 310Z " transform="matrix(-0.3790604057636239,-0.01986571408019994,0.01986571408019994,-0.3790604057636239,917.315457644761,475.29526436454796)" filter="url(#llleaves-blur-2)" opacity="0.58"></path><path d="M10 56H60C88 56 110 78 110 106H60C32 106 10 84 10 56Z " transform="matrix(-0.3568042802779662,-0.231711408897884,0.231711408897884,-0.3568042802779662,62.63963269594936,123.80383123638829)" opacity="0.65"></path><path d="M991 47H1041C1069 47 1091 69 1091 97H1041C1013 97 991 75 991 47Z " transform="matrix(-0.3805873468528894,-0.033297078331036484,0.033297078331036484,-0.3805873468528894,1434.7940384340232,134.064547516017)" filter="url(#llleaves-blur-2)" opacity="0.59"></path><path d="M1319 377H1369C1397 377 1419 399 1419 427H1369C1341 427 1319 405 1319 377Z " transform="matrix(-0.36638530481406184,-0.20309069077771616,0.20309069077771616,-0.36638530481406184,1788.9390245978088,827.3180482099463)" opacity="0.64"></path><path d="M846 30H896C924 30 946 52 946 80H896C868 80 846 58 846 30Z " transform="matrix(-0.2950200758776545,-0.33938177478559844,0.33938177478559844,-0.2950200758776545,1141.6719903731705,375.31217438116727)" opacity="0.69"></path><path d="M267 577H317C345 577 367 599 367 627H317C289 627 267 605 267 577Z " transform="matrix(-0.24607292881104112,-0.39379900463856937,0.39379900463856937,-0.24607292881104112,157.93811764068127,874.9701876146733)" opacity="0.71"></path><path d="M644 476H694C722 476 744 498 744 526H694C666 526 644 504 644 476Z " transform="matrix(-0.37532704413908646,4.596430632383696e-17,-4.596430632383696e-17,-0.37532704413908646,954.476968632526,689.0388491136823)" filter="url(#llleaves-blur-2)" opacity="0.58"></path><path d="M409 576H459C487 576 509 598 509 626H459C431 626 409 604 409 576Z " transform="matrix(-0.3614487125570875,-0.2171802971737663,0.2171802971737663,-0.3614487125570875,494.3796004622696,917.9164326495684)" opacity="0.65"></path><path d="M698 172H748C776 172 798 194 798 222H748C720 222 698 200 698 172Z " transform="matrix(-0.3659758206819298,0.03201873543426543,-0.03201873543426543,-0.3659758206819298,1028.0576047506338,245.14722256950964)" filter="url(#llleaves-blur-2)" opacity="0.56"></path><path d="M563 175H613C641 175 663 197 663 225H613C585 225 563 203 563 175Z " transform="matrix(-0.38429068365199154,-0.060865664852154056,0.060865664852154056,-0.38429068365199154,836.3970561082399,314.16878928476876)" filter="url(#llleaves-blur-2)" opacity="0.60"></path><path d="M173 712H223C251 712 273 734 273 762H223C195 762 173 740 173 712Z " transform="matrix(-0.14237219822333666,-0.4656784773581432,0.4656784773581432,-0.14237219822333666,-88.45603760914742,945.774610541465)" opacity="0.75"></path><path d="M1038 181H1088C1116 181 1138 203 1138 231H1088C1060 231 1038 209 1038 181Z " transform="matrix(-0.2722146110298123,0.17677823538206688,-0.17677823538206688,-0.2722146110298123,1420.5858132891415,69.74148977645257)" filter="url(#llleaves-blur-2)" opacity="0.50"></path><path d="M429 183H479C507 183 529 205 529 233H479C451 233 429 211 429 183Z " transform="matrix(-0.37213152951254386,-0.1815006741761261,0.1815006741761261,-0.37213152951254386,619.4988624078743,372.3421810689735)" opacity="0.64"></path><path d="M863 615H913C941 615 963 637 963 665H913C885 665 863 643 863 615Z " transform="matrix(-0.3304689458510553,0.10737586950033368,-0.10737586950033368,-0.3304689458510553,1283.438704042227,753.4659564908707)" filter="url(#llleaves-blur-2)" opacity="0.53"></path><path d="M784 264H834C862 264 884 286 884 314H834C806 314 784 292 784 264Z " transform="matrix(-0.3465659003485586,0.08001104251927381,-0.08001104251927381,-0.3465659003485586,1146.159152178768,322.4283357396591)" filter="url(#llleaves-blur-2)" opacity="0.55"></path><path d="M949 720H999C1027 720 1049 742 1049 770H999C971 770 949 748 949 720Z " transform="matrix(-0.30078716429170915,0.1467037022473803,-0.1467037022473803,-0.30078716429170915,1408.7806353017158,822.5294388521904)" filter="url(#llleaves-blur-2)" opacity="0.51"></path><path d="M130 582H180C208 582 230 604 230 632H180C152 632 130 610 130 582Z " transform="matrix(-0.11091410565352298,-0.4804217727560381,0.4804217727560381,-0.11091410565352298,-91.65147704528101,760.8007812277754)" opacity="0.76"></path></g></svg>